#!OML:ASF I:\Actors\actors\Patient Classification 1\Patient 1\Session 1\Subject1.ASF
:FULLY-SPECIFIED
:DEGREES
220
root 0.585288 17.5331 7.64629 6.52405 3.34504 -10.1293
lowerback 2.57051 1.76617 8.85677
upperback -9.04814 3.32758 1.99234
thorax -10.8389 0.965338 -3.17018
lowerneck -9.82235 -7.23494 -5.55557
upperneck 18.2733 -11.2629 10.9482
head 8.22801 -4.77755 3.36355
rclavicle 2.75814e-014 -3.16068e-014
rhumerus 11.956 25.1373 -92.2265
rradius 108.62
rwrist -2.28946
rhand -15.2007 -37.9334
rfingers 7.12502
rthumb 10.9711 -67.6268
lclavicle 2.75814e-014 -3.16068e-014
lhumerus -0.408774 -43.8916 101.916
lradius 124.154
lwrist 13.8626
lhand -34.6461 -26.4417
lfingers 7.12502
lthumb -7.8032 3.39426
rfemur -7.22433 20.4915 27.2144
rtibia 6.73496
rfoot -11.4399 -21.6987
rtoes 4.23214
lfemur -2.8503 -34.907 -2.87506
ltibia -1.75033
lfoot -9.49544 38.6204
ltoes -5.70312
221
root 0.552075 17.5352 7.64003 6.46011 3.88148 -10.2556
lowerback 2.57472 1.65293 8.71893
upperback -8.81749 3.14973 2.02605
thorax -10.6026 0.908872 -3.03739
lowerneck -9.62304 -7.25758 -5.5151
upperneck 17.4748 -11.2406 11.0862
head 7.93135 -4.78527 3.40959
rclavicle 3.42904e-015 3.22031e-014
rhumerus 11.9858 27.1758 -91.7571
rradius 115.275
rwrist -5.14125
rhand -13.2058 -36.3799
rfingers 7.12502
rthumb 12.8948 -65.9615
lclavicle 3.42904e-015 3.22031e-014
lhumerus 1.80173 -45.8357 100.514
lradius 126.399
lwrist 16.5105
lhand -33.4026 -25.7751
lfingers 7.12502
lthumb -6.6029 4.10198
rfemur -7.22593 20.3443 27.4786
rtibia 6.77008
rfoot -11.5287 -21.9971
rtoes 4.53546
lfemur -3.36989 -34.5227 -2.33425
ltibia -1.45059
lfoot -9.16145 37.8135
ltoes -6.87692
222
root 0.51382 17.5373 7.63432 6.41841 4.33216 -10.3998
lowerback 2.32585 1.47973 8.39455
upperback -8.45944 2.8515 2.22369
thorax -10.095 0.830895 -2.60442
lowerneck -9.4829 -7.19741 -5.42694
upperneck 16.6343 -11.0633 11.0268
head 7.60515 -4.73301 3.39936
rclavicle 1.88845e-014 -2.06736e-014
rhumerus 13.0283 29.8141 -90.6096
rradius 120.928
rwrist -5.77624
rhand -12.1226 -35.3853
rfingers 7.12502
rthumb 13.9389 -64.8981
lclavicle 1.88845e-014 -2.06736e-014
lhumerus 4.48391 -47.4603 98.7688
lradius 128.352
lwrist 17.981
lhand -32.8169 -24.9927
lfingers 7.12502
lthumb -6.03747 4.90126
rfemur -7.29512 20.0486 27.7602
rtibia 6.90162
rfoot -11.7064 -22.0132
rtoes 5.04998
lfemur -3.87968 -34.0994 -1.78151
ltibia -1.1326
lfoot -8.86251 37.0362
ltoes -7.98298
223
root 0.470238 17.5376 7.62937 6.36792 4.68061 -10.5836
lowerback 3.01195 1.34341 8.59228
upperback -8.78893 2.78063 2.1148
thorax -10.8867 0.733207 -2.84722
lowerneck -8.86006 -7.16184 -5.37864
upperneck 16.4011 -11.0124 11.0255
head 7.40949 -4.73712 3.41781
rclavicle -2.33572e-015 1.74931e-014
rhumerus 13.2918 32.3351 -89.9537
rradius 125.802
rwrist -5.16032
rhand -11.2027 -33.8059
rfingers 7.12502
rthumb 14.8253 -63.2556
lclavicle -2.33572e-015 1.74931e-014
lhumerus 5.37907 -49.3828 98.063
lradius 130.042
lwrist 18.4108
lhand -32.9892 -24.0261
lfingers 7.12502
lthumb -6.2038 5.86302
rfemur -7.3536 19.6117 28.0932
rtibia 7.00453
rfoot -11.8765 -21.7654
rtoes 5.4201
lfemur -4.29838 -33.7305 -1.22564
ltibia -0.817398
lfoot -8.7546 36.3954
ltoes -8.65456
224
root 0.420504 17.5369 7.62368 6.26129 4.99584 -10.7721
lowerback 3.36024 1.19246 8.68673
upperback -8.84933 2.62774 2.07594
thorax -11.1836 0.634304 -2.93465
lowerneck -8.32892 -7.05727 -5.41349
upperneck 15.9789 -10.8684 11.2416
head 7.17925 -4.68664 3.52751
rclavicle 2.3059e-014 -8.15017e-014
rhumerus 14.5729 35.071 -88.5687
rradius 129.951
rwrist -4.44134
rhand -10.4494 -35.6412
rfingers 7.12502
rthumb 15.5509 -65.036
lclavicle 2.3059e-014 -8.15017e-014
lhumerus 7.13011 -51.0643 96.7112
lradius 131.174
lwrist 18.4856
lhand -32.9799 -23.9519
lfingers 7.12502
lthumb -6.19484 5.93747
rfemur -7.3248 19.1318 28.4823
rtibia 7.03522
rfoot -11.9419 -21.5175
rtoes 5.42346
lfemur -4.68298 -33.166 -0.676341
ltibia -0.450883
lfoot -8.47948 35.6229
ltoes -9.57438
225
root 0.366877 17.5344 7.61684 6.09131 5.23555 -10.9034
lowerback 3.5855 1.03568 8.68112
upperback -8.76637 2.43585 2.07993
thorax -11.2484 0.540866 -2.91023
lowerneck -7.79418 -6.92808 -5.7506
upperneck 15.441 -10.6898 11.7687
head 6.94296 -4.61756 3.79005
rclavicle -7.65321e-015 -2.06736e-014
rhumerus 16.6604 37.9274 -86.3342
rradius 133.383
rwrist -3.92373
rhand -10.4286 -35.7033
rfingers 7.12502
rthumb 15.5709 -65.0965
lclavicle -7.65321e-015 -2.06736e-014
lhumerus 9.39386 -52.4523 94.9274
lradius 131.953
lwrist 18.4933
lhand -32.9266 -23.9863
lfingers 7.12502
lthumb -6.14332 5.90465
rfemur -7.21203 18.6054 28.8605
rtibia 7.04653
rfoot -11.9358 -21.2194
rtoes 5.29138
lfemur -4.93911 -32.6993 -0.26976
ltibia -0.112285
lfoot -8.08785 34.9966
ltoes -10.2818
226
root 0.310076 17.531 7.60976 5.87263 5.36179 -11.0153
lowerback 3.91971 0.968595 8.68941
upperback -8.69527 2.37149 1.99599
thorax -11.3746 0.500007 -3.00678
lowerneck -7.50325 -6.90647 -6.01279
upperneck 15.1849 -10.681 12.2056
head 6.84751 -4.61514 3.9849
rclavicle 1.5704e-014 3.1408e-014
rhumerus 18.9193 40.663 -83.7634
rradius 136.059
rwrist -3.35409
rhand -11.481 -38.6806
rfingers 7.12502
rthumb 14.5571 -68.1498
lclavicle 1.5704e-014 3.1408e-014
lhumerus 11.5908 -53.9698 93.1031
lradius 132.622
lwrist 18.7005
lhand -33.023 -24.8265
lfingers 7.12502
lthumb -6.2364 5.06165
rfemur -7.00174 18.1243 29.2544
rtibia 6.96239
rfoot -11.822 -20.889
rtoes 4.95841
lfemur -5.00617 -32.4937 0.0209445
ltibia 0.151408
lfoot -7.88815 34.6776
ltoes -10.3156
227
root 0.249767 17.5267 7.606 5.68322 5.41489 -11.0766
lowerback 4.18163 0.939234 8.61431
upperback -8.63798 2.33947 1.88563
thorax -11.4685 0.481765 -3.08795
lowerneck -7.41906 -6.84345 -5.87265
upperneck 15.194 -10.6205 12.2337
head 6.8236 -4.57916 3.98029
rclavicle 4.47266e-015 7.15625e-015
rhumerus 21.085 43.2428 -81.3062
rradius 137.826
rwrist -2.45899
rhand -12.5291 -40.2692
rfingers 7.12502
rthumb 13.547 -69.8085
lclavicle 4.47266e-015 7.15625e-015
lhumerus 13.6578 -55.4101 91.214
lradius 133.174
lwrist 19.3722
lhand -32.93 -25.3187
lfingers 7.12502
lthumb -6.14663 4.57216
rfemur -6.74245 17.8304 29.6132
rtibia 6.75172
rfoot -11.5924 -20.7124
rtoes 4.42052
lfemur -5.0111 -32.2893 0.239198
ltibia 0.409377
lfoot -7.85023 34.3906
ltoes -10.0764
228
root 0.187627 17.5214 7.60547 5.52737 5.40438 -11.0376
lowerback 4.32152 0.911827 8.43116
upperback -8.57388 2.28204 1.75766
thorax -11.4829 0.463442 -3.12168
lowerneck -7.29755 -6.81657 -5.8177
upperneck 15.1318 -10.5975 12.294
head 6.78044 -4.56768 3.9971
rclavicle -1.36167e-014 1.66979e-014
rhumerus 23.222 45.1474 -78.894
rradius 138.744
rwrist -1.35985
rhand -13.3085 -41.3979
rfingers 7.12502
rthumb 12.7958 -70.9858
lclavicle -1.36167e-014 1.66979e-014
lhumerus 15.627 -56.5881 89.2148
lradius 133.551
lwrist 20.3672
lhand -33.1499 -22.6243
lfingers 7.12502
lthumb -6.35897 7.26027
rfemur -6.51422 17.6244 29.8666
rtibia 6.59467
rfoot -11.395 -20.5717
rtoes 4.09953
lfemur -4.95384 -32.0948 0.329325
ltibia 0.618099
lfoot -7.86278 34.1586
ltoes -9.91447
229
root 0.127371 17.5178 7.60465 5.40975 5.34144 -10.9574
lowerback 4.42835 0.904296 8.26202
upperback -8.50628 2.24302 1.57633
thorax -11.4684 0.451041 -3.22247
lowerneck -7.17936 -6.82023 -5.70929
upperneck 14.9793 -10.6227 12.4089
head 6.71445 -4.57544 4.01745
rclavicle -2.52457e-014 8.74653e-015
rhumerus 25.2673 46.4247 -76.5384
rradius 139.119
rwrist 0.077884
rhand -13.8748 -42.2771
rfingers 7.12502
rthumb 12.2499 -71.8983
lclavicle -2.52457e-014 8.74653e-015
lhumerus 17.5828 -57.6142 87.11
lradius 133.829
lwrist 21.4226
lhand -33.2913 -20.209
lfingers 7.12502
lthumb -6.49546 9.67142
rfemur -6.36235 17.3814 30.0524
rtibia 6.51409
rfoot -11.2346 -20.3411
rtoes 3.93851
lfemur -4.88275 -31.9126 0.373536
ltibia 0.765202
lfoot -7.87003 34.0514
ltoes -10.2482
230
root 0.0726517 17.5175 7.60442 5.36279 5.22427 -10.8659
lowerback 4.45906 0.920978 8.1311
upperback -8.45837 2.23311 1.39059
thorax -11.4263 0.44993 -3.35096
lowerneck -7.05004 -6.86239 -5.66842
upperneck 14.7924 -10.6963 12.568
head 6.6466 -4.60895 4.05857
rclavicle -6.85807e-015 -2.38542e-014
rhumerus 27.0458 47.4308 -74.432
rradius 139.236
rwrist 1.47691
rhand -15.0982 -45.5112
rfingers 7.12502
rthumb 11.0701 -75.1993
lclavicle -6.85807e-015 -2.38542e-014
lhumerus 19.1645 -58.5799 85.2606
lradius 134.117
lwrist 21.8509
lhand -33.2359 -20.0842
lfingers 7.12502
lthumb -6.442 9.79782
rfemur -6.28853 17.1129 30.1871
rtibia 6.44559
rfoot -11.0533 -20.0499
rtoes 3.62743
lfemur -4.84212 -31.7264 0.40004
ltibia 0.890064
lfoot -7.71212 34.051
ltoes -11.0014
231
root 0.0228311 17.5181 7.60529 5.35678 5.05441 -10.8135
lowerback 4.42838 0.969725 8.06527
upperback -8.42827 2.27082 1.23255
thorax -11.362 0.468365 -3.49003
lowerneck -6.99975 -6.9348 -5.61001
upperneck 14.7205 -10.8016 12.5892
head 6.62365 -4.65987 4.04659
rclavicle 4.07509e-015 -3.18055e-015
rhumerus 28.5801 48.193 -72.5825
rradius 139.325
rwrist 2.08745
rhand -16.5579 -47.7752
rfingers 7.12502
rthumb 9.6619 -77.5337
lclavicle 4.07509e-015 -3.18055e-015
lhumerus 20.2644 -59.4924 83.8477
lradius 134.287
lwrist 21.0353
lhand -33.9754 -20.7481
lfingers 7.12502
lthumb -7.15587 9.11089
rfemur -6.30502 16.9634 30.3348
rtibia 6.49257
rfoot -11.0013 -19.7878
rtoes 3.5661
lfemur -4.79512 -31.673 0.462613
ltibia 0.970395
lfoot -7.58932 34.2047
ltoes -11.3133
232
root -0.0220126 17.5182 7.606 5.35508 4.8332 -10.8135
lowerback 4.39711 0.997204 8.05654
upperback -8.40126 2.29281 1.14562
thorax -11.3052 0.477798 -3.58132
lowerneck -6.96798 -6.93336 -5.54159
upperneck 14.651 -10.7916 12.5336
head 6.58813 -4.65949 4.01924
rclavicle 5.06901e-015 0
rhumerus 29.996 48.8284 -70.9627
rradius 139.334
rwrist 2.05352
rhand -18.2373 -48.8421
rfingers 7.12502
rthumb 8.04133 -78.6691
lclavicle 5.06901e-015 0
lhumerus 21.0831 -59.9665 82.719
lradius 134.281
lwrist 19.8526
lhand -35.3024 -21.9583
lfingers 7.12502
lthumb -8.43665 7.85316
rfemur -6.39462 16.8908 30.515
rtibia 6.6643
rfoot -11.0476 -19.5242
rtoes 3.75526
lfemur -4.69912 -31.7017 0.579145
ltibia 0.980198
lfoot -7.85613 34.4105
ltoes -10.7915
233
root -0.0590661 17.5193 7.60771 5.3722 4.56797 -10.7487
lowerback 4.3325 1.02041 7.99038
upperback -8.38435 2.30281 1.08268
thorax -11.2429 0.487798 -3.612
lowerneck -6.89373 -6.84347 -5.52739
upperneck 14.5724 -10.6733 12.6051
head 6.5417 -4.60265 4.05431
rclavicle 1.89839e-014 -4.77083e-014
rhumerus 31.1464 49.3811 -69.6298
rradius 139.333
rwrist 2.33169
rhand -19.4536 -49.6516
rfingers 7.12502
rthumb 6.8673 -79.5203
lclavicle 1.89839e-014 -4.77083e-014
lhumerus 21.5808 -59.9881 81.9654
lradius 134.214
lwrist 19.3784
lhand -35.724 -23.6781
lfingers 7.12502
lthumb -8.84344 6.11656
rfemur -6.50807 16.7683 30.5877
rtibia 6.84877
rfoot -11.0373 -19.1892
rtoes 3.87993
lfemur -4.54389 -31.5849 0.576395
ltibia 0.958293
lfoot -8.2556 34.4591
ltoes -10.1341
234
root -0.0885034 17.5202 7.60992 5.4117 4.31085 -10.6398
lowerback 4.24002 1.07514 7.90749
upperback -8.3704 2.34785 0.983273
thorax -11.1613 0.515049 -3.67651
lowerneck -6.81906 -6.84167 -5.3656
upperneck 14.4018 -10.6714 12.5982
head 6.46568 -4.60268 4.0279
rclavicle -2.28602e-015 1.43125e-014
rhumerus 32.2212 49.9893 -68.2334
rradius 139.493
rwrist 3.68389
rhand -19.8953 -51.6438
rfingers 7.12502
rthumb 6.44086 -81.5259
lclavicle -2.28602e-015 1.43125e-014
lhumerus 22.4131 -60.7136 80.8315
lradius 134.82
lwrist 20.1121
lhand -36.2979 -22.9035
lfingers 7.12502
lthumb -9.39724 6.86699
rfemur -6.62902 16.6713 30.5815
rtibia 7.02229
rfoot -10.9859 -18.8984
rtoes 3.83487
lfemur -4.34016 -31.5791 0.457701
ltibia 0.891946
lfoot -8.45678 34.6046
ltoes -9.78389
